<?xml version="1.0" standalone="no"?>
<!DOCTYPE svg PUBLIC "-//W3C//DTD SVG 20010904//EN"
 "http://www.w3.org/TR/2001/REC-SVG-20010904/DTD/svg10.dtd">
<svg version="1.0" xmlns="http://www.w3.org/2000/svg"
 width="240.000000pt" height="240.000000pt" viewBox="0 0 240.000000 240.000000"
 preserveAspectRatio="xMidYMid meet">

<g transform="translate(0.000000,240.000000) scale(0.100000,-0.100000)"
fill="#000000" stroke="none">
<path d="M1135 1901 c-46 -11 -71 -28 -103 -66 l-29 -36 -42 17 c-49 19 -107
12 -115 -14 -15 -54 -16 -88 -6 -139 16 -77 49 -139 100 -188 64 -62 68 -76
13 -48 -26 12 -52 23 -59 23 -27 0 -37 -42 -30 -127 5 -73 3 -91 -16 -135 -17
-40 -19 -54 -10 -67 6 -9 18 -30 26 -48 8 -18 30 -40 51 -50 l36 -19 -80 -72
c-102 -93 -125 -137 -119 -232 2 -39 1 -70 -3 -70 -15 0 -47 47 -84 123 -46
95 -73 110 -95 57 -25 -59 22 -186 89 -243 l30 -24 -46 -7 c-25 -3 -62 -7 -82
-7 -25 -1 -14 -5 39 -14 110 -20 1117 -20 1215 -1 67 13 68 14 25 15 -25 1
-61 4 -81 7 l-36 6 43 40 c48 44 84 124 84 186 0 43 -45 146 -60 137 -5 -3
-10 -30 -10 -59 0 -85 -39 -169 -91 -197 -33 -17 -38 0 -22 86 17 92 12 207
-12 275 -14 41 -35 74 -149 234 l-38 54 31 46 c110 160 89 307 -56 380 -19 9
-41 33 -52 55 -45 87 -165 144 -256 122z m146 -48 c44 -23 59 -38 82 -81 18
-34 39 -57 55 -63 75 -29 132 -105 132 -176 0 -79 -105 -243 -155 -243 -8 0
-22 11 -31 25 -20 31 -15 96 16 193 23 75 26 140 6 168 -21 28 -26 15 -14 -32
10 -35 8 -55 -12 -128 -22 -81 -33 -101 -42 -74 -7 20 -82 -8 -122 -45 -32
-30 -37 -32 -88 -27 -54 5 -55 5 -131 94 -42 50 -77 94 -77 99 0 10 32 1 82
-24 87 -44 171 -31 203 31 23 44 18 45 -19 6 -41 -45 -77 -47 -173 -11 -37 14
-76 24 -86 23 -25 -4 -45 46 -46 112 -1 34 2 41 11 32 7 -7 25 -12 40 -12 22
0 33 8 46 30 21 37 39 37 104 5 58 -29 77 -24 36 9 -16 12 -28 27 -28 34 0 7
-7 12 -16 12 -14 0 -15 2 -3 17 50 60 142 70 230 26z m-332 -447 c15 -8 34
-22 41 -31 12 -15 11 -19 -10 -35 -34 -25 -19 -35 20 -15 26 13 51 16 114 12
44 -2 92 -8 106 -13 23 -7 24 -6 11 9 -7 9 -20 17 -27 17 -24 0 -15 16 24 44
76 52 96 30 78 -87 -8 -51 -6 -66 14 -113 21 -51 21 -56 6 -73 -9 -10 -14 -20
-11 -23 9 -9 -65 -68 -85 -68 -11 0 -20 -5 -20 -10 0 -6 -7 -73 -16 -148 -9
-76 -14 -169 -11 -209 7 -91 1 -113 -28 -113 -22 0 -23 5 -30 95 -7 92 -7 95
16 114 30 24 21 35 -15 18 l-28 -12 6 -107 6 -108 -35 0 c-46 0 -59 25 -52
107 4 51 2 63 -10 63 -12 0 -14 -15 -12 -85 l4 -86 -45 -1 c-238 -4 -271 4
-322 78 -37 54 -62 147 -48 174 6 11 14 18 19 16 4 -3 20 -37 36 -77 32 -80
69 -124 109 -135 35 -9 41 -2 27 37 -16 47 -13 109 9 156 10 24 58 84 106 135
l87 92 -29 9 c-37 12 -74 46 -74 68 0 9 -7 22 -15 29 -13 11 -13 16 2 43 27
54 32 86 21 140 -13 60 -5 107 18 107 8 0 27 -6 43 -14z m445 -136 c9 0 25 4
35 9 14 8 29 -8 93 -97 41 -59 85 -126 97 -149 31 -62 42 -160 29 -262 -18
-137 -17 -145 14 -149 56 -7 138 103 138 185 0 37 17 26 24 -15 15 -97 -72
-228 -162 -246 -15 -3 -110 -2 -211 2 -174 7 -184 8 -167 24 13 14 22 15 43 7
42 -16 53 7 11 24 -89 37 -128 174 -55 193 13 3 29 4 36 2 8 -2 16 3 18 10 3
8 -7 12 -32 12 -43 0 -85 -36 -85 -75 0 -31 25 -93 47 -117 15 -17 15 -19 0
-36 -10 -10 -17 -24 -17 -30 0 -7 -10 -12 -22 -12 -23 0 -23 2 -22 128 1 70 6
165 13 212 6 46 11 90 11 97 0 7 16 20 35 29 35 16 75 57 75 77 0 6 7 18 16
28 14 16 14 20 -2 50 -24 48 -34 89 -28 116 l6 24 22 -20 c12 -12 30 -21 40
-21z"/>
<path d="M1237 1772 c-5 -7 -17 -10 -27 -7 -11 3 -20 0 -24 -10 -8 -22 3 -45
23 -45 29 0 43 16 39 46 -2 20 -6 25 -11 16z"/>
<path d="M983 1190 c-32 -13 -29 -32 4 -28 17 2 29 10 31 21 4 19 -2 20 -35 7z"/>
<path d="M1177 1193 c-14 -4 -16 -8 -6 -19 16 -20 51 -18 47 3 -3 18 -14 23
-41 16z"/>
<path d="M1070 1131 c0 -5 7 -14 15 -21 8 -7 12 -16 9 -21 -8 -14 -36 -10 -56
8 -10 9 -18 11 -18 5 0 -21 44 -40 87 -38 46 3 73 19 73 44 0 12 -4 11 -16 -6
-17 -25 -54 -30 -54 -8 0 8 5 18 10 21 20 12 9 25 -20 25 -16 0 -30 -4 -30 -9z"/>
</g>
</svg>
